<svg width="50" height="50" viewBox="0 0 50 50" fill="none" xmlns="http://www.w3.org/2000/svg">
<rect width="50" height="50" fill="white"/>
<path d="M25.0781 49.9219C38.8421 49.9219 50 38.764 50 25C50 11.236 38.8421 0.0780792 25.0781 0.0780792C11.3141 0.0780792 0.156143 11.236 0.156143 25C0.156143 38.764 11.3141 49.9219 25.0781 49.9219Z" fill="#19AADE"/>
<path d="M0 25.1733C0 33.5689 4.20884 40.872 10.6522 45.3261L24.3478 25.1733V0.217392C11.1736 0.374622 0 11.65 0 25.1733Z" fill="#EF7E32"/>
<path d="M24.9219 0.0780792C24.823 0.0780792 24.8585 0.0846991 24.4691 0.0858673V24.6106L48.4693 33.1612C49.3555 30.6035 49.8435 27.8594 49.8435 25C49.8439 11.2357 38.6858 0.0780792 24.9219 0.0780792Z" fill="#1DE4BD"/>
<circle cx="25" cy="25" r="13.0435" fill="white"/>
<path d="M22.7578 25.7695H21.2383V25.1562H22.7578C23.0521 25.1562 23.2904 25.1094 23.4727 25.0156C23.6549 24.9219 23.7878 24.7917 23.8711 24.625C23.957 24.4583 24 24.2682 24 24.0547C24 23.8594 23.957 23.6758 23.8711 23.5039C23.7878 23.332 23.6549 23.194 23.4727 23.0898C23.2904 22.9831 23.0521 22.9297 22.7578 22.9297H21.4141V28H20.6602V22.3125H22.7578C23.1875 22.3125 23.5508 22.3867 23.8477 22.5352C24.1445 22.6836 24.3698 22.8893 24.5234 23.1523C24.6771 23.4128 24.7539 23.7109 24.7539 24.0469C24.7539 24.4115 24.6771 24.7227 24.5234 24.9805C24.3698 25.2383 24.1445 25.4349 23.8477 25.5703C23.5508 25.7031 23.1875 25.7695 22.7578 25.7695ZM28.7383 26.5625C28.7383 26.4297 28.7174 26.3125 28.6758 26.2109C28.6367 26.1068 28.5664 26.013 28.4648 25.9297C28.3659 25.8464 28.2279 25.7669 28.0508 25.6914C27.8763 25.6159 27.6549 25.5391 27.3867 25.4609C27.1055 25.3776 26.8516 25.2852 26.625 25.1836C26.3984 25.0794 26.2044 24.9609 26.043 24.8281C25.8815 24.6953 25.7578 24.543 25.6719 24.3711C25.5859 24.1992 25.543 24.0026 25.543 23.7812C25.543 23.5599 25.5885 23.3555 25.6797 23.168C25.7708 22.9805 25.901 22.8177 26.0703 22.6797C26.2422 22.5391 26.4466 22.4297 26.6836 22.3516C26.9206 22.2734 27.1849 22.2344 27.4766 22.2344C27.9036 22.2344 28.2656 22.3164 28.5625 22.4805C28.862 22.6419 29.0898 22.8542 29.2461 23.1172C29.4023 23.3776 29.4805 23.6562 29.4805 23.9531H28.7305C28.7305 23.7396 28.6849 23.5508 28.5938 23.3867C28.5026 23.2201 28.3646 23.0898 28.1797 22.9961C27.9948 22.8997 27.7604 22.8516 27.4766 22.8516C27.2083 22.8516 26.987 22.8919 26.8125 22.9727C26.638 23.0534 26.5078 23.1628 26.4219 23.3008C26.3385 23.4388 26.2969 23.5964 26.2969 23.7734C26.2969 23.8932 26.3216 24.0026 26.3711 24.1016C26.4232 24.1979 26.5026 24.2878 26.6094 24.3711C26.7188 24.4544 26.8568 24.5312 27.0234 24.6016C27.1927 24.6719 27.3945 24.7396 27.6289 24.8047C27.9518 24.8958 28.2305 24.9974 28.4648 25.1094C28.6992 25.2214 28.8919 25.3477 29.043 25.4883C29.1966 25.6263 29.3099 25.7839 29.3828 25.9609C29.4583 26.1354 29.4961 26.3333 29.4961 26.5547C29.4961 26.7865 29.4492 26.9961 29.3555 27.1836C29.2617 27.3711 29.1276 27.5312 28.9531 27.6641C28.7786 27.7969 28.569 27.8997 28.3242 27.9727C28.082 28.043 27.8112 28.0781 27.5117 28.0781C27.2487 28.0781 26.9896 28.0417 26.7344 27.9688C26.4818 27.8958 26.2513 27.7865 26.043 27.6406C25.8372 27.4948 25.6719 27.3151 25.5469 27.1016C25.4245 26.8854 25.3633 26.6354 25.3633 26.3516H26.1133C26.1133 26.5469 26.151 26.7148 26.2266 26.8555C26.3021 26.9935 26.4049 27.1081 26.5352 27.1992C26.668 27.2904 26.8177 27.3581 26.9844 27.4023C27.1536 27.444 27.3294 27.4648 27.5117 27.4648C27.7747 27.4648 27.9974 27.4284 28.1797 27.3555C28.362 27.2826 28.5 27.1784 28.5938 27.043C28.6901 26.9076 28.7383 26.7474 28.7383 26.5625Z" fill="black"/>
</svg>
